#N canvas 483 159 686 522 10;
#X obj 81 209 grainEnv sin;
#X obj 149 169 r env-type;
#X text 135 475 contains tables for windowing functions;
#X obj 54 476 windowTables;
#X obj 396 43 loadbang;
#X obj 375 42 bng 15 250 50 0 empty empty empty 17 7 0 10 -262144 -1
-1;
#X msg 399 76 hello.wav goodbye.wav;
#N canvas 619 286 639 429 file-load 0;
#X obj 32 426 soundfiler;
#X obj 32 348 list append samp;
#X obj 33 320 list prepend read -resize;
#X obj 31 400 list trim;
#X obj 34 133 list-drip;
#X obj 94 198 i 1;
#X obj 126 198 + 1;
#X msg 109 134 1;
#X obj 33 76 inlet;
#X obj 32 467 prepent;
#X obj 33 499 outlet;
#X text 158 195 sample index;
#X obj 33 103 t a b;
#X obj 32 378 list append samp;
#X obj 104 426 print instructions;
#X obj 34 162 t a b;
#X obj 103 233 t f f;
#X msg 158 270 \$1\$2L;
#X msg 162 296 \$1\$2R;
#X connect 0 0 9 0;
#X connect 1 0 13 0;
#X connect 2 0 1 0;
#X connect 3 0 14 0;
#X connect 3 0 0 0;
#X connect 4 0 15 0;
#X connect 5 0 6 0;
#X connect 5 0 9 1;
#X connect 5 0 16 0;
#X connect 6 0 5 1;
#X connect 7 0 5 1;
#X connect 8 0 12 0;
#X connect 9 0 10 0;
#X connect 12 0 4 0;
#X connect 12 1 7 0;
#X connect 13 0 3 0;
#X connect 15 0 2 0;
#X connect 15 1 5 0;
#X connect 16 0 18 0;
#X connect 16 1 17 0;
#X connect 17 0 1 1;
#X connect 18 0 13 1;
#X restore 400 112 pd file-load;
#X obj 400 148 print length;
#X obj 66 334 table samp1L;
#X obj 151 335 table samp1R;
#X obj 63 356 table samp2L;
#X obj 148 357 table samp2R;
#X obj 55 376 table samp3L;
#X obj 140 377 table samp3R;
#X obj 55 402 table samp4L;
#X obj 140 403 table samp4R;
#X obj 135 423 table samp5R;
#X obj 50 422 table samp5L;
#X obj 52 445 table samp6L;
#X obj 137 446 table samp6R;
#X obj 357 256 multi-stereo-soundfiler smepl;
#X connect 1 0 0 1;
#X connect 4 0 6 0;
#X connect 5 0 6 0;
#X connect 6 0 7 0;
#X connect 7 0 8 0;
