#N canvas 782 68 686 545 10;
#X obj 284 27 loadbang;
#X obj 255 28 bng 15 250 50 0 empty empty empty 17 7 0 10 -262144 -1
-1;
#X obj 338 135 print length;
#X obj 21 386 table samp1L;
#X obj 105 386 table samp1R;
#X obj 21 408 table samp2L;
#X obj 105 408 table samp2R;
#X obj 21 428 table samp3L;
#X obj 105 428 table samp3R;
#X obj 21 454 table samp4L;
#X obj 105 454 table samp4R;
#X obj 105 474 table samp5R;
#X obj 21 474 table samp5L;
#X obj 21 497 table samp6L;
#X obj 105 497 table samp6R;
#X obj 306 97 multi-stereo-soundfiler samp sounds;
#X obj 285 134 s lens;
#X obj 327 481 dac~;
#X obj 435 287 hsl 128 15 0 127 0 0 empty empty empty -2 -8 0 10 -262144
-1 -1 10000 1;
#X obj 380 391 dbtorms;
#X obj 326 427 *~ 0;
#X obj 362 426 *~ 0;
#X floatatom 419 437 5 0 0 0 - - -, f 5;
#X obj 337 307 nbx 5 14 -1e+37 1e+37 0 0 empty empty empty 0 -8 0 10
-262144 -1 -1 0 256 0;
#X obj 435 314 / 127;
#X obj 435 338 * 40;
#X obj 435 362 + 68;
#X text 526 265 volume;
#X obj 255 96 length;
#X obj 222 134 s sampsn;
#N canvas 248 82 1428 875 manyshuffs 1;
#X obj 132 101 inlet;
#X obj 281 121 r sampsn;
#X obj 204 189 random 1;
#X obj 204 100 bng 15 250 50 0 empty empty empty 17 7 0 10 -262144
-1 -1;
#X obj 260 304 % 6, f 4;
#X obj 1009 414 demultiplex~ . . . . . .;
#X obj 1262 472 send~ \$0-a1;
#X obj 1262 494 send~ \$0-a2;
#X obj 1263 516 send~ \$0-a3;
#X obj 1262 538 send~ \$0-a4;
#X obj 1262 560 send~ \$0-a5;
#X obj 1262 582 send~ \$0-a6;
#X obj 1198 414 demultiplex~ . . . . . .;
#X obj 1046 324 line~;
#X obj 75 588 shufflsf~ samp 1 10000 5000;
#X obj 559 807 outlet~;
#X obj 629 808 outlet~;
#X obj 150 617 receive~ \$0-a1;
#X obj 119 657 *~;
#X obj 163 657 *~;
#X obj 303 658 *~;
#X obj 347 658 *~;
#X obj 482 656 *~;
#X obj 526 656 *~;
#X obj 659 657 *~;
#X obj 703 657 *~;
#X obj 840 656 *~;
#X obj 884 656 *~;
#X obj 1018 656 *~;
#X obj 1062 656 *~;
#X obj 259 589 shufflsf~ samp 2 10000 5000;
#X obj 438 587 shufflsf~ samp 3 10000 5000;
#X obj 615 588 shufflsf~ samp 4 10000 5000;
#X obj 795 586 shufflsf~ samp 5 10000 5000;
#X obj 974 587 shufflsf~ samp 6 10000 5000;
#X obj 334 618 receive~ \$0-a2;
#X obj 513 616 receive~ \$0-a3;
#X obj 690 617 receive~ \$0-a4;
#X obj 871 616 receive~ \$0-a5;
#X obj 1049 616 receive~ \$0-a6;
#X obj 955 400 ==~ 1;
#X obj 955 428 edge~;
#X obj 534 301 f 0;
#X msg 567 320 0;
#X obj 955 459 s \$0-off;
#X obj 528 184 r \$0-off;
#X obj 260 379 s \$0-on;
#X obj 1115 268 inlet;
#X obj 1157 353 gate 2;
#X obj 1154 141 f 0;
#X obj 1154 167 + 1;
#X obj 1193 166 % 2;
#X obj 1157 226 + 1;
#X obj 1046 234 f 0;
#X obj 1154 90 t b f b;
#X obj 510 260 f 0;
#X obj 528 213 t b b b;
#X msg 619 320 1;
#X obj 1154 63 r \$0-on;
#X obj 534 364 pack 0 0;
#X obj 592 252 t f b;
#X obj 534 405 route 1 2 3 4 5 6;
#X obj 386 410 print toshuff;
#X obj 982 264 t f f;
#X obj 1211 389 print x1;
#X obj 1275 391 print x2;
#X obj 650 248 print q1;
#X obj 450 301 print q2;
#X obj 1046 296 pack 1 30000;
#X obj 216 321 +;
#X obj 204 247 t b f;
#X obj 204 286 f 0;
#X obj 204 216 + 1;
#X obj 249 166 - 1;
#X obj 1246 179 - 1;
#X obj 591 211 r \$0-on;
#X obj 260 339 + 1;
#X obj 1046 361 xcos~;
#X connect 0 0 2 0;
#X connect 1 0 4 1;
#X connect 1 0 73 0;
#X connect 2 0 72 0;
#X connect 3 0 2 0;
#X connect 4 0 71 1;
#X connect 4 0 76 0;
#X connect 5 0 6 0;
#X connect 5 1 7 0;
#X connect 5 2 8 0;
#X connect 5 3 9 0;
#X connect 5 4 10 0;
#X connect 5 5 11 0;
#X connect 12 0 6 0;
#X connect 12 1 7 0;
#X connect 12 2 8 0;
#X connect 12 3 9 0;
#X connect 12 4 10 0;
#X connect 12 5 11 0;
#X connect 13 0 40 0;
#X connect 13 0 77 0;
#X connect 14 0 18 0;
#X connect 14 1 19 0;
#X connect 17 0 18 1;
#X connect 17 0 19 1;
#X connect 18 0 15 0;
#X connect 19 0 16 0;
#X connect 20 0 15 0;
#X connect 21 0 16 0;
#X connect 22 0 15 0;
#X connect 23 0 16 0;
#X connect 24 0 15 0;
#X connect 25 0 16 0;
#X connect 26 0 15 0;
#X connect 27 0 16 0;
#X connect 28 0 15 0;
#X connect 29 0 16 0;
#X connect 30 0 20 0;
#X connect 30 1 21 0;
#X connect 31 0 22 0;
#X connect 31 1 23 0;
#X connect 32 0 24 0;
#X connect 32 1 25 0;
#X connect 33 0 26 0;
#X connect 33 1 27 0;
#X connect 34 0 28 0;
#X connect 34 1 29 0;
#X connect 35 0 20 1;
#X connect 35 0 21 1;
#X connect 36 0 22 1;
#X connect 36 0 23 1;
#X connect 37 0 24 1;
#X connect 37 0 25 1;
#X connect 38 0 26 1;
#X connect 38 0 27 1;
#X connect 39 0 28 1;
#X connect 39 0 29 1;
#X connect 40 0 41 0;
#X connect 41 0 44 0;
#X connect 42 0 59 0;
#X connect 43 0 59 1;
#X connect 45 0 56 0;
#X connect 47 0 68 1;
#X connect 48 0 5 0;
#X connect 48 0 64 0;
#X connect 48 1 12 0;
#X connect 48 1 65 0;
#X connect 49 0 50 0;
#X connect 50 0 51 0;
#X connect 51 0 49 1;
#X connect 51 0 53 1;
#X connect 51 0 52 0;
#X connect 52 0 48 0;
#X connect 53 0 63 0;
#X connect 54 0 53 0;
#X connect 54 1 74 0;
#X connect 54 2 49 0;
#X connect 55 0 42 1;
#X connect 55 0 67 0;
#X connect 56 0 55 0;
#X connect 56 1 42 0;
#X connect 56 2 43 0;
#X connect 57 0 59 1;
#X connect 58 0 54 0;
#X connect 59 0 61 0;
#X connect 59 0 62 0;
#X connect 60 0 59 0;
#X connect 60 1 57 0;
#X connect 61 0 14 0;
#X connect 61 1 30 0;
#X connect 61 2 31 0;
#X connect 61 3 32 0;
#X connect 61 4 33 0;
#X connect 61 5 34 0;
#X connect 63 0 40 1;
#X connect 63 1 68 0;
#X connect 68 0 13 0;
#X connect 69 0 4 0;
#X connect 70 0 71 0;
#X connect 70 1 69 1;
#X connect 71 0 69 0;
#X connect 72 0 70 0;
#X connect 73 0 2 1;
#X connect 74 0 48 1;
#X connect 75 0 55 1;
#X connect 75 0 60 0;
#X connect 75 0 66 0;
#X connect 76 0 46 0;
#X connect 77 0 5 0;
#X connect 77 1 12 0;
#X restore 286 359 pd manyshuffs;
#X msg 287 61 bouncing-eggs.WAV hippo.wav ice-lapping.wav rain-on-tent.wav
;
#X obj 435 232 loadbang;
#X msg 435 257 100;
#X obj 17 93 del 120000;
#X obj 46 18 tgl 15 0 empty empty empty 17 7 0 10 -262144 -1 -1 1 1
;
#X obj 46 47 route 1;
#X obj 85 243 del 0;
#X obj 86 163 t b b;
#X obj 134 216 * 1000;
#X obj 46 286 s control;
#X obj 86 132 metro 60000;
#X obj 250 301 r control;
#X obj 250 330 bng 15 250 50 0 empty empty empty 17 7 0 10 -262144
-1 -1;
#X obj 222 205 counter;
#X obj 149 92 nbx 5 14 -1e+37 1e+37 0 0 empty empty empty 0 -8 0 10
-262144 -1 -1 0 256 0;
#X obj 134 192 random 60;
#X connect 0 0 31 0;
#X connect 1 0 31 0;
#X connect 15 0 2 0;
#X connect 15 0 16 0;
#X connect 18 0 24 0;
#X connect 19 0 21 1;
#X connect 19 0 20 1;
#X connect 19 0 22 0;
#X connect 20 0 17 0;
#X connect 21 0 17 1;
#X connect 23 0 30 1;
#X connect 24 0 25 0;
#X connect 25 0 26 0;
#X connect 26 0 19 0;
#X connect 28 0 29 0;
#X connect 30 0 20 0;
#X connect 30 1 21 0;
#X connect 31 0 15 0;
#X connect 31 0 28 0;
#X connect 32 0 33 0;
#X connect 33 0 18 0;
#X connect 34 0 41 0;
#X connect 35 0 36 0;
#X connect 36 0 40 0;
#X connect 36 0 34 0;
#X connect 36 1 41 0;
#X connect 37 0 40 0;
#X connect 38 0 37 0;
#X connect 38 1 46 0;
#X connect 39 0 37 1;
#X connect 41 0 38 0;
#X connect 42 0 43 0;
#X connect 43 0 30 0;
#X connect 45 0 41 1;
#X connect 46 0 39 0;
