#N canvas 229 202 686 522 10;
#X obj 284 27 loadbang;
#X obj 255 28 bng 15 250 50 0 empty empty empty 17 7 0 10 -262144 -1
-1;
#X obj 320 133 print length;
#X obj 66 334 table samp1L;
#X obj 150 336 table samp1R;
#X obj 66 356 table samp2L;
#X obj 150 358 table samp2R;
#X obj 66 376 table samp3L;
#X obj 150 378 table samp3R;
#X obj 66 402 table samp4L;
#X obj 150 404 table samp4R;
#X obj 150 424 table samp5R;
#X obj 66 422 table samp5L;
#X obj 66 445 table samp6L;
#X obj 150 447 table samp6R;
#X obj 288 95 multi-stereo-soundfiler samp sounds;
#X obj 267 132 s lens;
#X msg 287 61 bouncing-eggs.WAV;
#X obj 327 481 dac~;
#X obj 433 356 hsl 128 15 0 127 0 0 empty empty empty -2 -8 0 10 -262144
-1 -1 10000 1;
#X obj 380 391 dbtorms;
#X obj 326 427 *~ 0;
#X obj 362 426 *~ 0;
#X floatatom 419 437 5 0 0 0 - - -, f 5;
#X obj 184 224 tgl 15 0 empty empty empty 17 7 0 10 -262144 -1 -1 1
1;
#X obj 220 274 shufflsf~ samp 1 7000 2000;
#X connect 0 0 17 0;
#X connect 1 0 17 0;
#X connect 15 0 2 0;
#X connect 15 0 16 0;
#X connect 17 0 15 0;
#X connect 19 0 20 0;
#X connect 20 0 22 1;
#X connect 20 0 21 1;
#X connect 20 0 23 0;
#X connect 21 0 18 0;
#X connect 22 0 18 1;
#X connect 24 0 25 0;
#X connect 25 0 21 0;
#X connect 25 1 22 0;
