#N canvas 165 162 686 522 10;
#X obj 284 27 loadbang;
#X obj 255 28 bng 15 250 50 0 empty empty empty 17 7 0 10 -262144 -1
-1;
#X obj 320 133 print length;
#X obj 66 334 table samp1L;
#X obj 150 336 table samp1R;
#X obj 66 356 table samp2L;
#X obj 150 358 table samp2R;
#X obj 66 376 table samp3L;
#X obj 150 378 table samp3R;
#X obj 66 402 table samp4L;
#X obj 150 404 table samp4R;
#X obj 150 424 table samp5R;
#X obj 66 422 table samp5L;
#X obj 66 445 table samp6L;
#X obj 150 447 table samp6R;
#X obj 288 95 multi-stereo-soundfiler samp sounds;
#X obj 267 132 s lens;
#X msg 287 61 bouncing-eggs.WAV;
#X connect 0 0 17 0;
#X connect 1 0 17 0;
#X connect 15 0 2 0;
#X connect 15 0 16 0;
#X connect 17 0 15 0;
