#N canvas 758 193 686 522 10;
#X obj 149 169 r env-type;
#X text 135 475 contains tables for windowing functions;
#X obj 349 83 loadbang;
#X obj 320 84 bng 15 250 50 0 empty empty empty 17 7 0 10 -262144 -1
-1;
#X msg 352 116 hello.wav goodbye.wav;
#X obj 353 188 print length;
#X obj 66 334 table samp1L;
#X obj 151 335 table samp1R;
#X obj 63 356 table samp2L;
#X obj 148 357 table samp2R;
#X obj 55 376 table samp3L;
#X obj 140 377 table samp3R;
#X obj 55 402 table samp4L;
#X obj 140 403 table samp4R;
#X obj 135 423 table samp5R;
#X obj 50 422 table samp5L;
#X obj 52 445 table samp6L;
#X obj 137 446 table samp6R;
#X obj 353 151 multi-stereo-soundfiler samp;
#X obj 76 223 grainEnv sin;
#X obj 52 474 windowTables;
#X connect 0 0 19 1;
#X connect 2 0 4 0;
#X connect 3 0 4 0;
#X connect 4 0 18 0;
#X connect 18 0 5 0;
