#N canvas 224 254 686 522 10;
#X obj 284 27 loadbang;
#X obj 255 28 bng 15 250 50 0 empty empty empty 17 7 0 10 -262144 -1
-1;
#X obj 338 135 print length;
#X obj 21 386 table samp1L;
#X obj 105 386 table samp1R;
#X obj 21 408 table samp2L;
#X obj 105 408 table samp2R;
#X obj 21 428 table samp3L;
#X obj 105 428 table samp3R;
#X obj 21 454 table samp4L;
#X obj 105 454 table samp4R;
#X obj 105 474 table samp5R;
#X obj 21 474 table samp5L;
#X obj 21 497 table samp6L;
#X obj 105 497 table samp6R;
#X obj 306 97 multi-stereo-soundfiler samp sounds;
#X obj 285 134 s lens;
#X obj 327 481 dac~;
#X obj 435 282 hsl 128 15 0 127 0 0 empty empty empty -2 -8 0 10 -262144
-1 -1 11100 1;
#X obj 380 391 dbtorms;
#X obj 326 427 *~ 0;
#X obj 362 426 *~ 0;
#X floatatom 419 437 5 0 0 0 - - -, f 5;
#X obj 299 203 nbx 5 14 -1e+37 1e+37 0 0 empty empty empty 0 -8 0 10
-262144 -1 -1 0 256 0;
#X obj 379 205 nbx 5 14 -1e+37 1e+37 0 0 empty empty empty 0 -8 0 10
-262144 -1 -1 0 256 0;
#X obj 435 314 / 127;
#X obj 435 338 * 40;
#X obj 435 362 + 68;
#X text 434 260 volume;
#X obj 255 96 length;
#X obj 222 134 s sampsn;
#N canvas 224 72 1428 852 manyshuffs 1;
#X obj 132 132 inlet;
#X obj 305 160 r sampsn;
#X obj 204 211 random 1;
#X obj 204 131 bng 15 250 50 0 empty empty empty 17 7 0 10 -262144
-1 -1;
#X obj 249 187 - 1;
#X obj 204 287 % 6;
#X obj 204 316 + 1;
#X obj 1009 414 demultiplex~ . . . . . .;
#X obj 1046 369 xpowcos~;
#X obj 1262 472 send~ \$0-a1;
#X obj 1262 494 send~ \$0-a2;
#X obj 1263 516 send~ \$0-a3;
#X obj 1262 538 send~ \$0-a4;
#X obj 1262 560 send~ \$0-a5;
#X obj 1262 582 send~ \$0-a6;
#X obj 1198 414 demultiplex~ . . . . . .;
#X obj 1046 324 line~;
#X obj 75 588 shufflsf~ samp 1 10000 5000;
#X obj 559 807 outlet~;
#X obj 629 808 outlet~;
#X obj 150 617 receive~ \$0-a1;
#X obj 119 657 *~;
#X obj 163 657 *~;
#X obj 303 658 *~;
#X obj 347 658 *~;
#X obj 482 656 *~;
#X obj 526 656 *~;
#X obj 659 657 *~;
#X obj 703 657 *~;
#X obj 840 656 *~;
#X obj 884 656 *~;
#X obj 1018 656 *~;
#X obj 1062 656 *~;
#X obj 259 589 shufflsf~ samp 2 10000 5000;
#X obj 438 587 shufflsf~ samp 3 10000 5000;
#X obj 615 588 shufflsf~ samp 4 10000 5000;
#X obj 795 586 shufflsf~ samp 5 10000 5000;
#X obj 974 587 shufflsf~ samp 6 10000 5000;
#X obj 334 618 receive~ \$0-a2;
#X obj 513 616 receive~ \$0-a3;
#X obj 690 617 receive~ \$0-a4;
#X obj 871 616 receive~ \$0-a5;
#X obj 1049 616 receive~ \$0-a6;
#X obj 1046 296 pack 1 10000;
#X obj 594 301 gate 6;
#X obj 75 556 r \$0-shuff1;
#X obj 974 556 r \$0-shuff6;
#X obj 795 554 r \$0-shuff5;
#X obj 615 554 r \$0-shuff4;
#X obj 438 554 r \$0-shuff3;
#X obj 259 557 r \$0-shuff2;
#X obj 594 340 s \$0-shuff1;
#X obj 594 452 s \$0-shuff6;
#X obj 594 427 s \$0-shuff5;
#X obj 594 404 s \$0-shuff4;
#X obj 594 384 s \$0-shuff3;
#X obj 594 361 s \$0-shuff2;
#X obj 938 393 ==~ 1;
#X obj 938 421 edge~;
#X obj 559 240 f 0;
#X msg 599 241 0;
#X obj 938 452 s \$0-off;
#X obj 570 125 r \$0-off;
#X obj 204 347 s \$0-on;
#X obj 1115 268 inlet;
#X obj 1155 370 gate 2;
#X obj 1154 141 f 0;
#X obj 1154 167 + 1;
#X obj 1192 152 % 2;
#X obj 1154 194 + 1;
#X obj 634 157 r \$0-on;
#X obj 1046 234 f 0;
#X obj 1154 90 t b f b;
#X obj 1274 194 + 0;
#X obj 531 202 f 0;
#X obj 570 157 t b b b;
#X obj 634 197 t b f;
#X msg 664 241 1;
#X obj 1154 63 r \$0-on;
#X connect 0 0 2 0;
#X connect 1 0 4 0;
#X connect 1 0 5 1;
#X connect 2 0 5 0;
#X connect 3 0 2 0;
#X connect 4 0 2 1;
#X connect 5 0 6 0;
#X connect 6 0 63 0;
#X connect 7 0 9 0;
#X connect 7 1 10 0;
#X connect 7 2 11 0;
#X connect 7 3 12 0;
#X connect 7 4 13 0;
#X connect 7 5 14 0;
#X connect 8 0 7 0;
#X connect 8 1 15 0;
#X connect 15 0 9 0;
#X connect 15 1 10 0;
#X connect 15 2 11 0;
#X connect 15 3 12 0;
#X connect 15 4 13 0;
#X connect 15 5 14 0;
#X connect 16 0 8 0;
#X connect 16 0 57 0;
#X connect 17 0 21 0;
#X connect 17 1 22 0;
#X connect 20 0 21 1;
#X connect 20 0 22 1;
#X connect 21 0 18 0;
#X connect 22 0 19 0;
#X connect 23 0 18 0;
#X connect 24 0 19 0;
#X connect 25 0 18 0;
#X connect 26 0 19 0;
#X connect 27 0 18 0;
#X connect 28 0 19 0;
#X connect 29 0 18 0;
#X connect 30 0 19 0;
#X connect 31 0 18 0;
#X connect 32 0 19 0;
#X connect 33 0 23 0;
#X connect 33 1 24 0;
#X connect 34 0 25 0;
#X connect 34 1 26 0;
#X connect 35 0 27 0;
#X connect 35 1 28 0;
#X connect 36 0 29 0;
#X connect 36 1 30 0;
#X connect 37 0 31 0;
#X connect 37 1 32 0;
#X connect 38 0 23 1;
#X connect 38 0 24 1;
#X connect 39 0 25 1;
#X connect 39 0 26 1;
#X connect 40 0 27 1;
#X connect 40 0 28 1;
#X connect 41 0 29 1;
#X connect 41 0 30 1;
#X connect 42 0 31 1;
#X connect 42 0 32 1;
#X connect 43 0 16 0;
#X connect 44 0 51 0;
#X connect 44 1 56 0;
#X connect 44 2 55 0;
#X connect 44 3 54 0;
#X connect 44 4 53 0;
#X connect 44 5 52 0;
#X connect 45 0 17 0;
#X connect 46 0 37 0;
#X connect 47 0 36 0;
#X connect 48 0 35 0;
#X connect 49 0 34 0;
#X connect 50 0 33 0;
#X connect 57 0 58 0;
#X connect 58 0 61 0;
#X connect 59 0 44 0;
#X connect 60 0 44 1;
#X connect 62 0 75 0;
#X connect 64 0 43 1;
#X connect 65 0 7 0;
#X connect 65 1 15 0;
#X connect 66 0 67 0;
#X connect 67 0 68 0;
#X connect 67 0 69 0;
#X connect 68 0 66 1;
#X connect 68 0 71 1;
#X connect 69 0 65 0;
#X connect 70 0 74 1;
#X connect 70 0 76 0;
#X connect 71 0 43 0;
#X connect 72 0 71 0;
#X connect 72 1 73 0;
#X connect 72 2 66 0;
#X connect 73 0 65 1;
#X connect 74 0 59 1;
#X connect 75 0 74 0;
#X connect 75 1 60 0;
#X connect 75 2 59 0;
#X connect 76 0 77 0;
#X connect 76 1 44 0;
#X connect 77 0 44 1;
#X connect 78 0 72 0;
#X restore 287 275 pd manyshuffs;
#X obj 260 231 bng 15 250 50 0 empty empty empty 17 7 0 10 -262144
-1 -1;
#X msg 287 61 bouncing-eggs.WAV hippo.wav ice-lapping.wav rain-on-tent.wav
;
#X connect 0 0 33 0;
#X connect 1 0 33 0;
#X connect 15 0 2 0;
#X connect 15 0 16 0;
#X connect 18 0 25 0;
#X connect 19 0 21 1;
#X connect 19 0 20 1;
#X connect 19 0 22 0;
#X connect 20 0 17 0;
#X connect 21 0 17 1;
#X connect 24 0 31 1;
#X connect 25 0 26 0;
#X connect 26 0 27 0;
#X connect 27 0 19 0;
#X connect 29 0 30 0;
#X connect 31 0 20 0;
#X connect 31 1 21 0;
#X connect 32 0 31 0;
#X connect 33 0 15 0;
#X connect 33 0 29 0;
