#N canvas 513 359 700 504 10;
#X obj 51 31 inlet;
#X obj 161 193 inlet;
#X obj 51 63 t a a;
#X obj 78 96 unpack f f;
#X obj 249 236 - \$1;
#X obj 135 125 t f f;
#X obj 51 268 list append;
#X obj 113 199 -;
#X obj 114 161 swap;
#X obj 270 194 inlet;
#X obj 113 232 * 1;
#X text 143 231 rate;
#X text 286 236 bang ms from end;
#X obj 150 403 >~ 0;
#X obj 150 431 edge~;
#X obj 51 460 outlet~;
#X obj 150 463 outlet;
#X obj 51 346 vline~~;
#X msg 51 305 \$1 0 \, \$2 0 \$3 0;
#X obj 61 437 outlet~;
#X connect 0 0 2 0;
#X connect 1 0 10 1;
#X connect 2 0 6 0;
#X connect 2 1 3 0;
#X connect 3 0 8 0;
#X connect 3 1 5 0;
#X connect 4 0 13 1;
#X connect 5 0 8 1;
#X connect 5 1 4 0;
#X connect 6 0 18 0;
#X connect 7 0 10 0;
#X connect 8 0 7 0;
#X connect 8 1 7 1;
#X connect 9 0 4 1;
#X connect 10 0 6 1;
#X connect 13 0 14 0;
#X connect 14 0 16 0;
#X connect 17 0 13 0;
#X connect 17 0 15 0;
#X connect 17 1 19 0;
#X connect 18 0 17 0;
