#N canvas 185 267 676 487 10;
#X obj 79 13 inlet;
#X obj 319 243 inlet;
#X obj 90 346 phasor~;
#X obj 79 63 unpack f f;
#X obj 91 167 -;
#X obj 121 130 f;
#X obj 90 271 expr 1/$f1;
#X obj 90 310 * 1;
#X obj 90 379 *~ 1;
#X obj 90 414 +~ 0;
#X obj 167 234 s \$0-length;
#X obj 156 137 s \$0-offset;
#X obj 91 194 t f f;
#X obj 143 351 r \$0-length;
#X obj 142 385 r \$0-offset;
#X obj 90 450 outlet~;
#X obj 146 314 r \$0-phase;
#X obj 72 92 t b b f f;
#X obj 12 179 s \$0-phase;
#X msg 12 150 0;
#X obj 90 235 / 1000;
#X obj 20 451 outlet~;
#X connect 0 0 3 0;
#X connect 1 0 7 1;
#X connect 2 0 8 0;
#X connect 2 0 21 0;
#X connect 3 0 17 0;
#X connect 3 1 5 1;
#X connect 4 0 12 0;
#X connect 5 0 4 0;
#X connect 6 0 7 0;
#X connect 7 0 2 0;
#X connect 8 0 9 0;
#X connect 9 0 15 0;
#X connect 12 0 20 0;
#X connect 12 1 10 0;
#X connect 13 0 8 1;
#X connect 14 0 9 1;
#X connect 16 0 2 1;
#X connect 17 0 19 0;
#X connect 17 1 5 0;
#X connect 17 2 4 1;
#X connect 17 3 11 0;
#X connect 19 0 18 0;
#X connect 20 0 6 0;
