#N canvas 831 171 880 622 10;
#X obj 321 26 loadbang;
#X obj 428 125 print length;
#X obj 28 425 table samp1L;
#X obj 112 425 table samp1R;
#X obj 28 447 table samp2L;
#X obj 112 447 table samp2R;
#X obj 28 467 table samp3L;
#X obj 112 467 table samp3R;
#X obj 28 493 table samp4L;
#X obj 112 493 table samp4R;
#X obj 112 513 table samp5R;
#X obj 28 513 table samp5L;
#X obj 28 536 table samp6L;
#X obj 112 536 table samp6R;
#X obj 398 88 multi-stereo-soundfiler samp sounds;
#X obj 377 125 s lens;
#X obj 509 539 dac~;
#X obj 531 246 hsl 128 15 0 127 0 0 empty empty empty -2 -8 0 10 -262144
-1 -1 10000 1;
#X obj 603 410 dbtorms;
#X obj 508 485 *~ 0;
#X obj 544 484 *~ 0;
#X floatatom 603 466 5 0 0 0 - - -, f 5;
#X obj 500 380 nbx 5 14 -1e+37 1e+37 0 0 empty empty empty 0 -8 0 10
-262144 -1 -1 0 256 0;
#X obj 603 338 / 127;
#X obj 603 362 * 40;
#X obj 603 386 + 68;
#X text 618 223 volume;
#X obj 347 87 length;
#X obj 314 125 s sampsn;
#X obj 567 140 loadbang;
#X msg 531 170 100;
#X obj 113 149 del 120000;
#X obj 139 66 tgl 15 0 empty empty empty 17 7 0 10 -262144 -1 -1 0
1;
#X obj 139 95 route 1;
#X obj 178 291 del 0;
#X obj 179 211 t b b;
#X obj 227 264 * 1000;
#X obj 139 334 s control;
#X obj 179 180 metro 60000;
#X obj 454 351 r control;
#X obj 454 380 bng 15 250 50 0 empty empty empty 17 7 0 10 -262144
-1 -1;
#X obj 227 240 random 60;
#X text 299 379 click to change sound ->;
#X text 406 25 list of sound files (up to 6);
#X obj 224 118 * 1000;
#X obj 224 93 r pace;
#X obj 321 246 hsl 128 15 0 127 0 0 empty empty empty -2 -8 0 10 -262144
-1 -1 7000 1;
#X obj 459 246 nbx 5 14 -1e+37 1e+37 0 0 empty empty empty 0 -8 0 10
-262144 -1 -1 90 256 0;
#X obj 368 277 + 20;
#X obj 368 305 s pace;
#X text 166 66 <——(((ON/OFF)));
#X msg 321 172 70;
#X obj 669 246 nbx 5 14 -1e+37 1e+37 0 0 empty empty empty 0 -8 0 10
-262144 -1 -1 99 256 0;
#X obj 655 435 s vol;
#X obj 669 224 r vol;
#X obj 459 223 r pace;
#X obj 655 410 int;
#X text 334 224 pace of transitions;
#X text 458 264 (seconds);
#X text 669 265 (dB);
#X obj 399 418 manyshuffs~ samp 5000 2000;
#X obj 207 502 s debug;
#X obj 207 467 tgl 15 0 empty empty empty 17 7 0 10 -262144 -1 -1 0
1;
#X msg 379 52 grjotagja.wav hippo.wav ice-lapping.wav rain-on-tent.wav
stream-through-ice.wav bubbls-in-mud.wav caravan-wind.wav;
#X obj 118 14 r aux;
#X obj 118 37 sel 1;
#X obj 29 202 s screenLine2;
#X msg 14 153 ON;
#X msg 58 154 OFF;
#X msg 636 102 \; screenLine1 OFF \; screenLine2 1: Pace of transitions
\; screenLine3 Aux: ON/OFF \;;
#X connect 0 0 63 0;
#X connect 0 0 69 0;
#X connect 14 0 1 0;
#X connect 14 0 15 0;
#X connect 17 0 23 0;
#X connect 18 0 20 1;
#X connect 18 0 19 1;
#X connect 18 0 21 0;
#X connect 19 0 16 0;
#X connect 20 0 16 1;
#X connect 22 0 60 1;
#X connect 23 0 24 0;
#X connect 24 0 25 0;
#X connect 25 0 18 0;
#X connect 25 0 56 0;
#X connect 27 0 28 0;
#X connect 29 0 30 0;
#X connect 29 0 51 0;
#X connect 30 0 17 0;
#X connect 31 0 38 0;
#X connect 32 0 33 0;
#X connect 33 0 37 0;
#X connect 33 0 31 0;
#X connect 33 0 67 0;
#X connect 33 1 38 0;
#X connect 33 1 68 0;
#X connect 34 0 37 0;
#X connect 35 0 34 0;
#X connect 35 1 41 0;
#X connect 36 0 34 1;
#X connect 38 0 35 0;
#X connect 39 0 40 0;
#X connect 40 0 60 0;
#X connect 41 0 36 0;
#X connect 44 0 38 1;
#X connect 45 0 44 0;
#X connect 46 0 48 0;
#X connect 48 0 49 0;
#X connect 51 0 46 0;
#X connect 54 0 52 0;
#X connect 55 0 47 0;
#X connect 56 0 53 0;
#X connect 60 0 19 0;
#X connect 60 1 20 0;
#X connect 62 0 61 0;
#X connect 63 0 14 0;
#X connect 63 0 27 0;
#X connect 64 0 65 0;
#X connect 65 0 32 0;
#X connect 67 0 66 0;
#X connect 68 0 66 0;
