#N canvas 174 61 1319 832 10;
#X obj 70 -56 inlet;
#X obj 219 -36 r sampsn;
#X obj 142 32 random 1;
#X obj 142 -57 bng 15 250 50 0 empty empty empty 17 7 0 10 -262144
-1 -1;
#X obj 198 147 % 6, f 4;
#X obj 942 298 demultiplex~ . . . . . .;
#X obj 1195 356 send~ \$0-a1;
#X obj 1195 378 send~ \$0-a2;
#X obj 1196 400 send~ \$0-a3;
#X obj 1195 422 send~ \$0-a4;
#X obj 1195 444 send~ \$0-a5;
#X obj 1195 466 send~ \$0-a6;
#X obj 1131 298 demultiplex~ . . . . . .;
#X obj 979 208 line~;
#X obj 496 640 outlet~;
#X obj 566 641 outlet~;
#X obj 87 450 receive~ \$0-a1;
#X obj 56 490 *~;
#X obj 100 490 *~;
#X obj 240 491 *~;
#X obj 284 491 *~;
#X obj 419 489 *~;
#X obj 463 489 *~;
#X obj 596 490 *~;
#X obj 640 490 *~;
#X obj 777 489 *~;
#X obj 821 489 *~;
#X obj 955 489 *~;
#X obj 999 489 *~;
#X obj 271 451 receive~ \$0-a2;
#X obj 450 449 receive~ \$0-a3;
#X obj 627 450 receive~ \$0-a4;
#X obj 808 449 receive~ \$0-a5;
#X obj 986 449 receive~ \$0-a6;
#X obj 888 284 ==~ 1;
#X obj 888 312 edge~;
#X obj 471 134 f 0;
#X msg 504 153 0;
#X obj 888 343 s \$0-off;
#X obj 465 17 r \$0-off;
#X obj 198 222 s \$0-on;
#X obj 1048 152 inlet;
#X obj 1090 237 gate 2;
#X obj 1087 25 f 0;
#X obj 1087 51 + 1;
#X obj 1126 50 % 2;
#X obj 1090 110 + 1;
#X obj 979 118 f 0;
#X obj 1087 -26 t b f b;
#X obj 447 93 f 0;
#X obj 465 46 t b b b;
#X msg 556 153 1;
#X obj 1087 -53 r \$0-on;
#X obj 471 197 pack 0 0;
#X obj 529 85 t f b;
#X obj 471 238 route 1 2 3 4 5 6;
#X obj 323 243 print toshuff;
#X obj 915 148 t f f;
#X obj 1144 273 print x1;
#X obj 1208 275 print x2;
#X obj 587 81 print q1;
#X obj 387 134 print q2;
#X obj 979 180 pack 1 30000;
#X obj 154 164 +;
#X obj 142 90 t b f;
#X obj 142 129 f 0;
#X obj 142 59 + 1;
#X obj 187 9 - 1;
#X obj 1179 63 - 1;
#X obj 528 44 r \$0-on;
#X obj 198 182 + 1;
#X obj 979 247 xcos~;
#X obj 12 421 shufflsf~ \$1 1 \$2 \$3;
#X obj 196 422 shufflsf~ \$1 2 \$2 \$3;
#X obj 375 420 shufflsf~ \$1 3 \$2 \$3;
#X obj 552 421 shufflsf~ \$1 4 \$2 \$3;
#X obj 732 419 shufflsf~ \$1 5 \$2 \$3;
#X obj 911 420 shufflsf~ \$1 6 \$2 \$3;
#X connect 0 0 2 0;
#X connect 1 0 4 1;
#X connect 1 0 67 0;
#X connect 2 0 66 0;
#X connect 3 0 2 0;
#X connect 4 0 65 1;
#X connect 4 0 70 0;
#X connect 5 0 6 0;
#X connect 5 1 7 0;
#X connect 5 2 8 0;
#X connect 5 3 9 0;
#X connect 5 4 10 0;
#X connect 5 5 11 0;
#X connect 12 0 6 0;
#X connect 12 1 7 0;
#X connect 12 2 8 0;
#X connect 12 3 9 0;
#X connect 12 4 10 0;
#X connect 12 5 11 0;
#X connect 13 0 34 0;
#X connect 13 0 71 0;
#X connect 16 0 17 1;
#X connect 16 0 18 1;
#X connect 17 0 14 0;
#X connect 18 0 15 0;
#X connect 19 0 14 0;
#X connect 20 0 15 0;
#X connect 21 0 14 0;
#X connect 22 0 15 0;
#X connect 23 0 14 0;
#X connect 24 0 15 0;
#X connect 25 0 14 0;
#X connect 26 0 15 0;
#X connect 27 0 14 0;
#X connect 28 0 15 0;
#X connect 29 0 19 1;
#X connect 29 0 20 1;
#X connect 30 0 21 1;
#X connect 30 0 22 1;
#X connect 31 0 23 1;
#X connect 31 0 24 1;
#X connect 32 0 25 1;
#X connect 32 0 26 1;
#X connect 33 0 27 1;
#X connect 33 0 28 1;
#X connect 34 0 35 0;
#X connect 35 0 38 0;
#X connect 36 0 53 0;
#X connect 37 0 53 1;
#X connect 39 0 50 0;
#X connect 41 0 62 1;
#X connect 42 0 5 0;
#X connect 42 0 58 0;
#X connect 42 1 12 0;
#X connect 42 1 59 0;
#X connect 43 0 44 0;
#X connect 44 0 45 0;
#X connect 45 0 43 1;
#X connect 45 0 47 1;
#X connect 45 0 46 0;
#X connect 46 0 42 0;
#X connect 47 0 57 0;
#X connect 48 0 47 0;
#X connect 48 1 68 0;
#X connect 48 2 43 0;
#X connect 49 0 36 1;
#X connect 49 0 61 0;
#X connect 50 0 49 0;
#X connect 50 1 36 0;
#X connect 50 2 37 0;
#X connect 51 0 53 1;
#X connect 52 0 48 0;
#X connect 53 0 55 0;
#X connect 53 0 56 0;
#X connect 54 0 53 0;
#X connect 54 1 51 0;
#X connect 55 0 72 0;
#X connect 55 1 73 0;
#X connect 55 2 74 0;
#X connect 55 3 75 0;
#X connect 55 4 76 0;
#X connect 55 5 77 0;
#X connect 57 0 34 1;
#X connect 57 1 62 0;
#X connect 62 0 13 0;
#X connect 63 0 4 0;
#X connect 64 0 65 0;
#X connect 64 1 63 1;
#X connect 65 0 63 0;
#X connect 66 0 64 0;
#X connect 67 0 2 1;
#X connect 68 0 42 1;
#X connect 69 0 49 1;
#X connect 69 0 54 0;
#X connect 69 0 60 0;
#X connect 70 0 40 0;
#X connect 71 0 5 0;
#X connect 71 1 12 0;
#X connect 72 0 17 0;
#X connect 72 1 18 0;
#X connect 73 0 19 0;
#X connect 73 1 20 0;
#X connect 74 0 21 0;
#X connect 74 1 22 0;
#X connect 75 0 23 0;
#X connect 75 1 24 0;
#X connect 76 0 25 0;
#X connect 76 1 26 0;
#X connect 77 0 27 0;
#X connect 77 1 28 0;
