#N canvas 259 186 492 541 10;
#X obj 42 436 soundfiler;
#X obj 42 358 list append samp;
#X obj 43 330 list prepend read -resize;
#X obj 41 410 list trim;
#X obj 40 78 list-drip;
#X obj 100 143 i 1;
#X obj 132 143 + 1;
#X msg 115 79 1;
#X obj 39 21 inlet;
#X obj 42 477 prepent;
#X obj 43 509 outlet;
#X text 164 140 sample index;
#X obj 39 48 t a b;
#X obj 42 388 list append samp;
#X obj 114 436 print instructions;
#X obj 40 107 t a b;
#X obj 109 178 t f f;
#X msg 168 280 \$1\$2L;
#X msg 172 306 \$1\$2R;
#X text 292 243 table names;
#X obj 185 229 list prepend \$1;
#X obj 191 256 list prepend \$1;
#X connect 0 0 9 0;
#X connect 1 0 13 0;
#X connect 2 0 1 0;
#X connect 3 0 14 0;
#X connect 3 0 0 0;
#X connect 4 0 15 0;
#X connect 5 0 6 0;
#X connect 5 0 9 1;
#X connect 5 0 16 0;
#X connect 6 0 5 1;
#X connect 7 0 5 1;
#X connect 8 0 12 0;
#X connect 9 0 10 0;
#X connect 12 0 4 0;
#X connect 12 1 7 0;
#X connect 13 0 3 0;
#X connect 15 0 2 0;
#X connect 15 1 5 0;
#X connect 16 0 21 0;
#X connect 16 1 20 0;
#X connect 17 0 1 1;
#X connect 18 0 13 1;
#X connect 20 0 17 0;
#X connect 21 0 18 0;
