#N canvas 706 243 557 681 10;
#X obj 48 441 soundfiler;
#X obj 49 310 list append samp;
#X obj 48 401 list trim;
#X obj 50 83 list-drip;
#X obj 77 148 i 1;
#X obj 109 148 + 1;
#X msg 125 84 1;
#X obj 50 22 inlet;
#X obj 47 627 prepent;
#X obj 47 659 outlet;
#X text 138 148 sample index;
#X obj 49 53 t a b;
#X obj 49 340 list append samp;
#X obj 121 438 print instructions;
#X obj 50 112 t a b;
#X obj 86 183 t f f;
#X msg 162 275 \$1\$2L;
#X msg 168 308 \$1\$2R;
#X text 212 291 table names;
#X obj 112 218 list prepend \$1;
#X obj 109 248 list prepend \$1;
#X obj 173 21 inlet;
#X msg 16 275 \$2/\$1;
#X obj 129 184 s \$0-index;
#X obj 86 598 r \$0-index;
#X obj 173 88 s \$0-path;
#X obj 31 217 r \$0-path;
#X obj 16 248 pack s s;
#X obj 173 52 symbol \$2;
#X obj 112 21 loadbang;
#X obj 47 577 / 1;
#X obj 78 501 samplerate~;
#X obj 78 471 loadbang;
#X obj 147 466 bng 15 250 50 0 empty empty empty 17 7 0 10 -262144
-1 -1;
#X obj 62 545 / 1000;
#X obj 48 371 list prepend read -resize -maxsize 1e+08;
#X connect 0 0 30 0;
#X connect 1 0 12 0;
#X connect 2 0 13 0;
#X connect 2 0 0 0;
#X connect 3 0 14 0;
#X connect 4 0 5 0;
#X connect 4 0 15 0;
#X connect 4 0 23 0;
#X connect 5 0 4 1;
#X connect 6 0 4 1;
#X connect 7 0 11 0;
#X connect 8 0 9 0;
#X connect 11 0 3 0;
#X connect 11 1 6 0;
#X connect 12 0 35 0;
#X connect 14 0 27 0;
#X connect 14 1 4 0;
#X connect 15 0 20 0;
#X connect 15 1 19 0;
#X connect 16 0 1 1;
#X connect 17 0 12 1;
#X connect 19 0 16 0;
#X connect 20 0 17 0;
#X connect 21 0 28 0;
#X connect 22 0 1 0;
#X connect 24 0 8 1;
#X connect 26 0 27 1;
#X connect 27 0 22 0;
#X connect 28 0 25 0;
#X connect 29 0 28 0;
#X connect 30 0 8 0;
#X connect 31 0 34 0;
#X connect 32 0 31 0;
#X connect 33 0 31 0;
#X connect 34 0 30 1;
#X connect 35 0 2 0;
