#N canvas 946 180 539 433 10;
#X obj 100 396 outlet~;
#X obj 174 396 outlet~;
#X obj 168 138 random 1000;
#X obj 250 22 r lens;
#X obj 250 50 route \$2;
#X obj 109 272 gate;
#X obj 109 304 xreader~ \$1 \$2 \$4;
#X obj 250 97 - \$3;
#X obj 329 57 inlet;
#X obj 385 58 inlet;
#X obj 90 21 inlet;
#X obj 195 203 + \$3;
#X obj 168 171 t f f;
#X obj 208 333 s \$0-next;
#X obj 23 90 s \$0-next;
#X obj 168 110 r \$0-next;
#X obj 130 243 pack f f;
#X obj 129 79 s \$0-standby;
#X obj 90 55 t b f f;
#X obj 390 156 r \$0-standby;
#X obj 405 401 dsp~;
#X msg 446 362 1;
#X obj 356 331 gate;
#X obj 377 300 r \$0-next;
#X msg 356 362 0;
#X obj 297 303 loadbang;
#X obj 390 183 t f f;
#X obj 356 246 swap 1;
#X obj 356 275 -;
#X obj 446 246 sel 1;
#X connect 2 0 12 0;
#X connect 3 0 4 0;
#X connect 4 0 7 0;
#X connect 5 0 6 0;
#X connect 6 0 0 0;
#X connect 6 1 1 0;
#X connect 6 2 13 0;
#X connect 7 0 2 1;
#X connect 8 0 7 1;
#X connect 8 0 11 1;
#X connect 9 0 6 1;
#X connect 10 0 18 0;
#X connect 11 0 16 1;
#X connect 12 0 16 0;
#X connect 12 1 11 0;
#X connect 15 0 2 0;
#X connect 16 0 5 1;
#X connect 18 0 14 0;
#X connect 18 1 5 0;
#X connect 18 2 17 0;
#X connect 19 0 26 0;
#X connect 21 0 20 0;
#X connect 22 0 24 0;
#X connect 23 0 22 1;
#X connect 24 0 20 0;
#X connect 25 0 24 0;
#X connect 26 0 27 0;
#X connect 26 1 29 0;
#X connect 27 0 28 0;
#X connect 27 1 28 1;
#X connect 28 0 22 0;
#X connect 29 0 21 0;
