#N canvas 946 180 539 433 10;
#X obj 100 396 outlet~;
#X obj 174 396 outlet~;
#X obj 168 138 random 1000;
#X obj 250 22 r lens;
#X obj 250 50 route \$2;
#X obj 109 272 gate;
#X obj 109 304 xreader~ \$1 \$2 \$4;
#X obj 250 97 - \$3;
#X obj 329 57 inlet;
#X obj 385 58 inlet;
#X obj 83 28 inlet;
#X obj 83 61 t b f;
#X obj 195 203 + \$3;
#X obj 168 171 t f f;
#X obj 208 333 s \$0-next;
#X obj 43 96 s \$0-next;
#X obj 168 101 r \$0-next;
#X obj 130 243 pack f f;
#X connect 2 0 13 0;
#X connect 3 0 4 0;
#X connect 4 0 7 0;
#X connect 5 0 6 0;
#X connect 6 0 0 0;
#X connect 6 1 1 0;
#X connect 6 2 14 0;
#X connect 7 0 2 1;
#X connect 8 0 7 1;
#X connect 8 0 12 1;
#X connect 9 0 6 1;
#X connect 10 0 11 0;
#X connect 11 0 15 0;
#X connect 11 1 5 0;
#X connect 12 0 17 1;
#X connect 13 0 17 0;
#X connect 13 1 12 0;
#X connect 16 0 2 0;
#X connect 17 0 5 1;
