#N canvas 787 479 450 300 10;
#X obj 62 7 inlet~;
#X obj 13 8 inlet~;
#X obj 93 159 tabread4~ \$1;
#X obj 185 63 pack \$1 \$2;
#X obj 185 9 loadbang;
#X msg 107 93 \$1\$2L;
#X msg 185 92 \$1\$2R;
#X obj 92 195 tabread4~ \$1;
#X obj 10 237 *~;
#X obj 42 236 *~;
#X obj 62 85 *~;
#X obj 107 8 r lens;
#X obj 106 36 route \$2;
#X obj 11 280 outlet~;
#X obj 74 281 outlet~;
#X obj 185 36 symbol \$1;
#X obj 107 122 prepent set;
#X obj 185 122 prepent set;
#X connect 0 0 10 0;
#X connect 1 0 8 0;
#X connect 1 0 9 0;
#X connect 2 0 8 1;
#X connect 3 0 5 0;
#X connect 3 0 6 0;
#X connect 4 0 15 0;
#X connect 5 0 16 0;
#X connect 6 0 17 0;
#X connect 7 0 9 1;
#X connect 8 0 13 0;
#X connect 9 0 14 0;
#X connect 10 0 2 0;
#X connect 10 0 7 0;
#X connect 11 0 12 0;
#X connect 12 0 10 1;
#X connect 15 0 3 0;
#X connect 16 0 2 0;
#X connect 17 0 7 0;
