#N canvas 391 312 450 341 10;
#X obj 65 8 inlet~;
#X obj 13 8 inlet~;
#X obj 244 84 pack \$1 \$2;
#X obj 154 8 loadbang;
#X msg 166 114 \$1\$2L;
#X msg 244 113 \$1\$2R;
#X obj 13 280 *~;
#X obj 45 279 *~;
#X obj 14 323 outlet~;
#X obj 77 324 outlet~;
#X obj 244 57 symbol \$1;
#X obj 166 143 prepent set;
#X obj 244 143 prepent set;
#X obj 107 72 samplerate~;
#X obj 246 8 inlet;
#X obj 246 29 t b a;
#X obj 107 98 /__ 1000;
#X obj 65 128 *~~;
#X obj 80 30 inlet~;
#X obj 130 202 tabread4~~ \$1;
#X obj 129 238 tabread4~~ \$1;
#X connect 0 0 17 0;
#X connect 1 0 6 0;
#X connect 1 0 7 0;
#X connect 2 0 4 0;
#X connect 2 0 5 0;
#X connect 3 0 10 0;
#X connect 3 0 13 0;
#X connect 4 0 11 0;
#X connect 5 0 12 0;
#X connect 6 0 8 0;
#X connect 7 0 9 0;
#X connect 10 0 2 0;
#X connect 11 0 19 0;
#X connect 12 0 20 0;
#X connect 13 0 16 0;
#X connect 14 0 15 0;
#X connect 15 0 13 0;
#X connect 15 1 10 0;
#X connect 16 0 17 2;
#X connect 16 1 17 3;
#X connect 17 0 19 0;
#X connect 17 0 20 0;
#X connect 17 1 19 1;
#X connect 17 1 20 1;
#X connect 18 0 17 1;
#X connect 19 0 6 1;
#X connect 20 0 7 1;
