#N canvas 705 385 450 300 10;
#X obj 62 7 inlet~;
#X obj 13 8 inlet~;
#X obj 130 202 tabread4~ \$1;
#X obj 222 106 pack \$1 \$2;
#X obj 124 9 loadbang;
#X msg 144 136 \$1\$2L;
#X msg 222 135 \$1\$2R;
#X obj 129 238 tabread4~ \$1;
#X obj 13 280 *~;
#X obj 45 279 *~;
#X obj 65 128 *~;
#X obj 14 323 outlet~;
#X obj 77 324 outlet~;
#X obj 222 79 symbol \$1;
#X obj 144 165 prepent set;
#X obj 222 165 prepent set;
#X obj 80 76 samplerate~;
#X obj 225 7 inlet;
#X obj 225 39 t b a;
#X obj 80 102 / 1000;
#X obj 183 8 inlet;
#X connect 0 0 10 0;
#X connect 1 0 8 0;
#X connect 1 0 9 0;
#X connect 2 0 8 1;
#X connect 3 0 5 0;
#X connect 3 0 6 0;
#X connect 4 0 13 0;
#X connect 4 0 16 0;
#X connect 5 0 14 0;
#X connect 6 0 15 0;
#X connect 7 0 9 1;
#X connect 8 0 11 0;
#X connect 9 0 12 0;
#X connect 10 0 2 0;
#X connect 10 0 7 0;
#X connect 13 0 3 0;
#X connect 14 0 2 0;
#X connect 15 0 7 0;
#X connect 16 0 19 0;
#X connect 17 0 18 0;
#X connect 18 0 16 0;
#X connect 18 1 13 0;
#X connect 19 0 10 1;
#X connect 20 0 19 0;
