#N canvas 552 432 450 300 10;
#X obj 57 33 inlet~;
#X obj 57 225 outlet~;
#X obj 163 227 outlet~;
#X obj 57 135 cos~;
#X obj 57 66 *~ 0.5;
#X obj 57 165 *~ 0.5;
#X obj 57 195 +~ 0.5;
#X obj 163 92 -~ 0.5;
#X obj 163 140 cos~;
#X obj 163 169 *~ 0.5;
#X obj 163 198 +~ 0.5;
#X connect 0 0 4 0;
#X connect 3 0 5 0;
#X connect 4 0 3 0;
#X connect 4 0 7 0;
#X connect 5 0 6 0;
#X connect 6 0 1 0;
#X connect 7 0 8 0;
#X connect 8 0 9 0;
#X connect 9 0 10 0;
#X connect 10 0 2 0;
