#N canvas 889 301 450 300 10;
#X obj 56 202 *~;
#X obj 57 33 inlet~;
#X obj 182 256 expr~ 1-$v1;
#X obj 56 299 outlet~;
#X obj 182 300 outlet~;
#X obj 57 99 cos~;
#X obj 57 66 *~ 0.5;
#X obj 57 129 *~ 0.5;
#X obj 57 159 +~ 0.5;
#X connect 0 0 2 0;
#X connect 0 0 3 0;
#X connect 1 0 6 0;
#X connect 2 0 4 0;
#X connect 5 0 7 0;
#X connect 6 0 5 0;
#X connect 7 0 8 0;
#X connect 8 0 0 0;
#X connect 8 0 0 1;
