#N canvas 473 200 450 300 10;
#X obj 98 106 inlet~;
#X obj 20 283 outlet~;
#X obj 98 282 outlet~;
#X obj 20 105 sig~ 1;
#X obj 20 148 -~;
#X obj 20 220 fade~;
#X obj 98 221 fade~;
#X obj 153 105 inlet;
#X obj 129 165 prepent set;
#X obj 206 25 loadbang;
#X msg 239 133 _sqrt;
#X obj 206 50 symbol \$1;
#X obj 240 104 sel \$1;
#X obj 206 76 t s s;
#X connect 0 0 4 1;
#X connect 0 0 6 0;
#X connect 3 0 4 0;
#X connect 4 0 5 0;
#X connect 5 0 1 0;
#X connect 6 0 2 0;
#X connect 7 0 8 0;
#X connect 8 0 6 0;
#X connect 8 0 5 0;
#X connect 9 0 11 0;
#X connect 10 0 8 0;
#X connect 11 0 13 0;
#X connect 12 1 10 0;
#X connect 13 0 12 0;
#X connect 13 1 8 0;
