#N canvas 453 182 450 300 10;
#X obj 57 89 *~;
#X obj 57 39 inlet~;
#X obj 57 182 expr~ 1-$v1;
#X obj 57 217 outlet~;
#X obj 183 218 outlet~;
#X connect 0 0 2 0;
#X connect 0 0 4 0;
#X connect 1 0 0 0;
#X connect 1 0 0 1;
#X connect 2 0 3 0;
