#N canvas 842 93 794 711 10;
#X obj 236 16 inlet;
#X obj 378 17 inlet;
#X obj 27 536 tabreadstereoms~ \$1 \$2;
#X obj 194 537 tabreadstereoms~ \$1 \$2;
#X obj 167 454 line~;
#X obj 26 330 chunkline~ \$3;
#X obj 101 358 s \$0-done;
#X obj 390 361 s \$0-done;
#X obj 315 334 chunkline~ \$3;
#X obj 378 56 s \$0-xfade;
#X obj 218 385 r \$0-xfade;
#X obj 203 189 gate 2;
#X obj 236 48 t a b;
#X obj 295 69 + 1;
#X obj 295 93 % 2;
#X obj 203 161 + 1;
#X obj 167 417 pack 1 \$3;
#X obj 263 121 t f f;
#X obj 383 593 r \$0-done;
#X obj 383 635 outlet;
#X obj 94 640 outlet~;
#X obj 230 639 outlet~;
#X obj 263 79 f 1;
#X obj 101 303 r \$0-xfade;
#X obj 390 306 r \$0-xfade;
#X obj 167 490 xpow~;
#X connect 0 0 12 0;
#X connect 1 0 9 0;
#X connect 2 0 20 0;
#X connect 2 1 21 0;
#X connect 3 0 20 0;
#X connect 3 1 21 0;
#X connect 4 0 25 0;
#X connect 5 0 2 1;
#X connect 5 1 6 0;
#X connect 8 0 3 1;
#X connect 8 1 7 0;
#X connect 10 0 16 1;
#X connect 11 0 5 0;
#X connect 11 1 8 0;
#X connect 12 0 11 1;
#X connect 12 1 22 0;
#X connect 13 0 14 0;
#X connect 14 0 22 1;
#X connect 15 0 11 0;
#X connect 16 0 4 0;
#X connect 17 0 15 0;
#X connect 17 1 16 0;
#X connect 18 0 19 0;
#X connect 22 0 13 0;
#X connect 22 0 17 0;
#X connect 23 0 5 2;
#X connect 24 0 8 2;
#X connect 25 0 2 0;
#X connect 25 1 3 0;
