#N canvas 430 198 763 623 10;
#X obj 147 544 dac~;
#X obj 150 401 xpow~;
#X obj 135 26 inlet;
#X obj 173 171 inlet;
#X obj 10 470 tabreadstereoms~ \$1 \$2;
#X obj 177 471 tabreadstereoms~ \$1 \$2;
#X obj 135 67 list split 2;
#X obj 219 314 list store;
#X text 159 209 xfade amount;
#X obj 150 371 line~;
#X msg 150 340 0 \, 1 \$1;
#X obj 150 311 f \$1;
#X obj 219 357 chunkline~;
#X obj 126 238 / 2;
#X obj 105 170 loadbang;
#X obj 52 267 chunkline~ \$3;
#X obj 126 211 f \$3;
#X connect 1 0 4 0;
#X connect 1 1 5 0;
#X connect 2 0 6 0;
#X connect 3 0 11 1;
#X connect 3 0 16 0;
#X connect 4 0 0 0;
#X connect 4 1 0 1;
#X connect 5 0 0 0;
#X connect 5 1 0 1;
#X connect 6 0 15 0;
#X connect 6 1 7 1;
#X connect 7 0 12 0;
#X connect 9 0 1 0;
#X connect 10 0 9 0;
#X connect 11 0 10 0;
#X connect 12 0 5 1;
#X connect 13 0 15 2;
#X connect 14 0 16 0;
#X connect 15 0 4 1;
#X connect 15 1 11 0;
#X connect 15 1 7 0;
#X connect 16 0 13 0;
