#N canvas 842 93 794 711 10;
#X obj 167 484 xpow~;
#X obj 236 16 inlet;
#X obj 378 17 inlet;
#X obj 27 536 tabreadstereoms~ \$1 \$2;
#X obj 194 537 tabreadstereoms~ \$1 \$2;
#X text 502 63 xfade amount;
#X obj 167 454 line~;
#X obj 469 92 / 2;
#X obj 496 25 loadbang;
#X obj 26 330 chunkline~ \$3;
#X obj 469 65 f \$3;
#X obj 101 358 s \$0-done;
#X obj 390 361 s \$0-done;
#X obj 315 334 chunkline~ \$3;
#X obj 377 121 s \$0-xfade;
#X obj 469 121 s \$0-donetime;
#X obj 101 303 r \$0-donetime;
#X obj 390 306 r \$0-donetime;
#X obj 218 385 r \$0-xfade;
#X obj 203 189 gate 2;
#X obj 236 48 t a b;
#X obj 295 69 + 1;
#X obj 295 93 % 2;
#X obj 203 161 + 1;
#X obj 167 417 pack 1 \$3;
#X obj 263 121 t f f;
#X obj 383 593 r \$0-done;
#X obj 383 635 outlet;
#X obj 94 640 outlet~;
#X obj 230 639 outlet~;
#X obj 263 79 f 1;
#X connect 0 0 3 0;
#X connect 0 1 4 0;
#X connect 1 0 20 0;
#X connect 2 0 10 0;
#X connect 2 0 14 0;
#X connect 3 0 28 0;
#X connect 3 1 29 0;
#X connect 4 0 28 0;
#X connect 4 1 29 0;
#X connect 6 0 0 0;
#X connect 7 0 15 0;
#X connect 8 0 10 0;
#X connect 9 0 3 1;
#X connect 9 1 11 0;
#X connect 10 0 7 0;
#X connect 13 0 4 1;
#X connect 13 1 12 0;
#X connect 16 0 9 2;
#X connect 17 0 13 2;
#X connect 18 0 24 1;
#X connect 19 0 9 0;
#X connect 19 1 13 0;
#X connect 20 0 19 1;
#X connect 20 1 30 0;
#X connect 21 0 22 0;
#X connect 22 0 30 1;
#X connect 23 0 19 0;
#X connect 24 0 6 0;
#X connect 25 0 23 0;
#X connect 25 1 24 0;
#X connect 26 0 27 0;
#X connect 30 0 21 0;
#X connect 30 0 25 0;
